<svg width="188" height="88" viewBox="0 0 188 88" fill="none" xmlns="http://www.w3.org/2000/svg">
<rect width="188" height="88" fill="#FF9254"/>
<path d="M25.2028 53H49.7972C49.9552 53.0001 50.1116 52.9691 50.2576 52.9087C50.4036 52.8483 50.5363 52.7597 50.648 52.648C50.7597 52.5363 50.8483 52.4036 50.9087 52.2576C50.9691 52.1116 51.0001 51.9552 51 51.7972V48.2028C51.0001 48.0448 50.9691 47.8884 50.9087 47.7424C50.8483 47.5964 50.7597 47.4637 50.648 47.352C50.5363 47.2403 50.4036 47.1517 50.2576 47.0913C50.1116 47.0309 49.9552 46.9999 49.7972 47H25.2028C25.0448 46.9999 24.8884 47.0309 24.7424 47.0913C24.5964 47.1517 24.4637 47.2403 24.352 47.352C24.2403 47.4637 24.1517 47.5964 24.0913 47.7424C24.0309 47.8884 23.9999 48.0448 24 48.2028V51.7972C23.9999 51.9552 24.0309 52.1116 24.0913 52.2576C24.1517 52.4036 24.2403 52.5363 24.352 52.648C24.4637 52.7597 24.5964 52.8483 24.7424 52.9087C24.8884 52.9691 25.0448 53.0001 25.2028 53ZM25.2028 29H49.7972C49.9552 29.0001 50.1116 28.9691 50.2576 28.9087C50.4036 28.8483 50.5363 28.7597 50.648 28.648C50.7597 28.5363 50.8483 28.4036 50.9087 28.2576C50.9691 28.1116 51.0001 27.9552 51 27.7972V24.2028C51.0001 24.0448 50.9691 23.8884 50.9087 23.7424C50.8483 23.5964 50.7597 23.4637 50.648 23.352C50.5363 23.2403 50.4036 23.1517 50.2576 23.0913C50.1116 23.0309 49.9552 22.9999 49.7972 23H25.2028C25.0448 22.9999 24.8884 23.0309 24.7424 23.0913C24.5964 23.1517 24.4637 23.2403 24.352 23.352C24.2403 23.4637 24.1517 23.5964 24.0913 23.7424C24.0309 23.8884 23.9999 24.0448 24 24.2028V27.7972C23.9999 27.9552 24.0309 28.1116 24.0913 28.2576C24.1517 28.4036 24.2403 28.5363 24.352 28.648C24.4637 28.7597 24.5964 28.8483 24.7424 28.9087C24.8884 28.9691 25.0448 29.0001 25.2028 29ZM64.5 35H25.5C25.1022 35 24.7206 35.158 24.4393 35.4393C24.158 35.7206 24 36.1022 24 36.5V39.5C24 39.8978 24.158 40.2794 24.4393 40.5607C24.7206 40.842 25.1022 41 25.5 41H64.5C64.8978 41 65.2794 40.842 65.5607 40.5607C65.842 40.2794 66 39.8978 66 39.5V36.5C66 36.1022 65.842 35.7206 65.5607 35.4393C65.2794 35.158 64.8978 35 64.5 35ZM64.5 59H25.5C25.1022 59 24.7206 59.158 24.4393 59.4393C24.158 59.7206 24 60.1022 24 60.5V63.5C24 63.8978 24.158 64.2794 24.4393 64.5607C24.7206 64.842 25.1022 65 25.5 65H64.5C64.8978 65 65.2794 64.842 65.5607 64.5607C65.842 64.2794 66 63.8978 66 63.5V60.5C66 60.1022 65.842 59.7206 65.5607 59.4393C65.2794 59.158 64.8978 59 64.5 59Z" fill="white"/>
</svg>
