<svg width="31" height="38" viewBox="0 0 31 38" fill="none" xmlns="http://www.w3.org/2000/svg">
<path d="M3.875 0H20L31 11V34.2C31 35.2078 30.5917 36.1744 29.865 36.887C29.1383 37.5996 28.1527 38 27.125 38H3.875C2.84729 38 1.86166 37.5996 1.13496 36.887C0.408258 36.1744 0 35.2078 0 34.2V3.8C0 2.79218 0.408258 1.82563 1.13496 1.11299C1.86166 0.400356 2.84729 0 3.875 0Z" fill="#A954FF"/>
<path d="M20 0V11H31" fill="#962DFF"/>
<path d="M24.0312 33.375H6.96875C5.88143 33.375 5 32.4936 5 31.4062V19.5938C5 18.5064 5.88143 17.625 6.96875 17.625H24.0312C25.1186 17.625 26 18.5064 26 19.5938V31.4062C26 32.4936 25.1186 33.375 24.0312 33.375ZM9.59375 19.9219C8.32522 19.9219 7.29688 20.9502 7.29688 22.2188C7.29688 23.4873 8.32522 24.5156 9.59375 24.5156C10.8623 24.5156 11.8906 23.4873 11.8906 22.2188C11.8906 20.9502 10.8623 19.9219 9.59375 19.9219ZM7.625 30.75H23.375V26.1562L19.7855 22.5668C19.5933 22.3746 19.2817 22.3746 19.0894 22.5668L13.5312 28.125L11.2543 25.848C11.0621 25.6558 10.7504 25.6558 10.5582 25.848L7.625 28.7812V30.75Z" fill="white"/>
</svg>
