<svg width="188" height="88" viewBox="0 0 188 88" fill="none" xmlns="http://www.w3.org/2000/svg">
<rect width="188" height="88" fill="#A954FF"/>
<path d="M75.0312 64H31.9688C29.2246 64 27 61.7615 27 59V29C27 26.2385 29.2246 24 31.9688 24H75.0312C77.7754 24 80 26.2385 80 29V59C80 61.7615 77.7754 64 75.0312 64ZM38.5938 29.8333C35.3922 29.8333 32.7969 32.445 32.7969 35.6667C32.7969 38.8883 35.3922 41.5 38.5938 41.5C41.7953 41.5 44.3906 38.8883 44.3906 35.6667C44.3906 32.445 41.7953 29.8333 38.5938 29.8333ZM33.625 57.3333H73.375V45.6667L64.3158 36.5505C63.8308 36.0624 63.0442 36.0624 62.5591 36.5505L48.5312 50.6667L42.7846 44.8839C42.2995 44.3957 41.513 44.3957 41.0278 44.8839L33.625 52.3333V57.3333Z" fill="white"/>
</svg>
