<svg width="188" height="88" viewBox="0 0 188 88" fill="none" xmlns="http://www.w3.org/2000/svg">
<rect width="188" height="88" fill="#3198FE"/>
<g clip-path="url(#clip0_63_38)">
<path d="M67 37.4376C67 45.4112 60.69 51.875 52.9062 51.875C52.0078 51.875 51.1293 51.7879 50.2775 51.6232L48.3547 53.8392C48.1744 54.047 47.9531 54.2134 47.7056 54.3272C47.458 54.4411 47.1896 54.5 46.9182 54.5H43.9375V57.7812C43.9375 58.8686 43.0771 59.75 42.0156 59.75H38.8125V63.0312C38.8125 64.1186 37.9521 65 36.8906 65H27.9219C26.8604 65 26 64.1186 26 63.0312V56.628C26 56.1058 26.2025 55.605 26.5629 55.2358L39.5197 41.963C39.0614 40.5394 38.8125 39.0183 38.8125 37.4375C38.8125 29.4639 45.1224 23.0001 52.9062 23C60.7129 22.9999 67 29.4404 67 37.4376ZM52.9062 33.5C52.9062 35.6746 54.6271 37.4375 56.75 37.4375C58.8729 37.4375 60.5938 35.6746 60.5938 33.5C60.5938 31.3254 58.8729 29.5625 56.75 29.5625C54.6271 29.5625 52.9062 31.3254 52.9062 33.5Z" fill="white"/>
</g>
<path d="M89.875 48.725L89.925 45.5L87.1 47.25L86.175 45.825L89.175 44.075L86.225 42.325L87.175 40.9L89.9 42.625L89.875 39.5H91.6L91.55 42.6L94.275 40.9L95.225 42.325L92.3 44.075L95.3 45.825L94.325 47.25L91.55 45.525L91.6 48.725H89.875ZM101.325 48.725L101.375 45.5L98.5502 47.25L97.6252 45.825L100.625 44.075L97.6752 42.325L98.6252 40.9L101.35 42.625L101.325 39.5H103.05L103 42.6L105.725 40.9L106.675 42.325L103.75 44.075L106.75 45.825L105.775 47.25L103 45.525L103.05 48.725H101.325ZM112.775 48.725L112.825 45.5L110 47.25L109.075 45.825L112.075 44.075L109.125 42.325L110.075 40.9L112.8 42.625L112.775 39.5H114.5L114.45 42.6L117.175 40.9L118.125 42.325L115.2 44.075L118.2 45.825L117.225 47.25L114.45 45.525L114.5 48.725H112.775ZM124.226 48.725L124.276 45.5L121.451 47.25L120.526 45.825L123.526 44.075L120.576 42.325L121.526 40.9L124.251 42.625L124.226 39.5H125.951L125.901 42.6L128.626 40.9L129.576 42.325L126.651 44.075L129.651 45.825L128.676 47.25L125.901 45.525L125.951 48.725H124.226Z" fill="white"/>
<defs>
<clipPath id="clip0_63_38">
<rect width="41" height="42" fill="white" transform="translate(26 23)"/>
</clipPath>
</defs>
</svg>
