<svg width="31" height="38" viewBox="0 0 31 38" fill="none" xmlns="http://www.w3.org/2000/svg">
<path d="M3.875 0H20L31 11V34.2C31 35.2078 30.5917 36.1744 29.865 36.887C29.1383 37.5996 28.1527 38 27.125 38H3.875C2.84729 38 1.86166 37.5996 1.13496 36.887C0.408258 36.1744 0 35.2078 0 34.2V3.8C0 2.79218 0.408258 1.82563 1.13496 1.11299C1.86166 0.400356 2.84729 0 3.875 0Z" fill="#3198FE"/>
<path d="M20 0V11H31" fill="#006BD5"/>
<g clip-path="url(#clip0_49_2)">
<path d="M23 20.5C23 23.5376 20.5376 26 17.5 26C17.1494 26 16.8066 25.9668 16.4742 25.9041L15.7238 26.7483C15.6534 26.8274 15.5671 26.8908 15.4705 26.9342C15.3738 26.9776 15.2691 27 15.1632 27H14V28.25C14 28.6642 13.6642 29 13.25 29H12V30.25C12 30.6642 11.6642 31 11.25 31H7.75C7.33578 31 7 30.6642 7 30.25V27.8107C7 27.6118 7.07903 27.421 7.21966 27.2803L12.276 22.224C12.0971 21.6817 12 21.1022 12 20.5C12 17.4624 14.4624 15 17.5 15C20.5465 15 23 17.4535 23 20.5ZM17.5 19C17.5 19.8284 18.1716 20.5 19 20.5C19.8284 20.5 20.5 19.8284 20.5 19C20.5 18.1716 19.8284 17.5 19 17.5C18.1716 17.5 17.5 18.1716 17.5 19Z" fill="white"/>
</g>
<defs>
<clipPath id="clip0_49_2">
<rect width="16" height="16" fill="white" transform="translate(7 15)"/>
</clipPath>
</defs>
</svg>
