<svg width="31" height="38" viewBox="0 0 31 38" fill="none" xmlns="http://www.w3.org/2000/svg">
<path d="M3.875 0H20L31 11V34.2C31 35.2078 30.5917 36.1744 29.865 36.887C29.1383 37.5996 28.1527 38 27.125 38H3.875C2.84729 38 1.86166 37.5996 1.13496 36.887C0.408258 36.1744 0 35.2078 0 34.2V3.8C0 2.79218 0.408258 1.82563 1.13496 1.11299C1.86166 0.400356 2.84729 0 3.875 0Z" fill="#FF9254"/>
<path d="M20 0V11H31" fill="#FF6009"/>
<path d="M6.57605 27.375H15.7989C15.8582 27.375 15.9169 27.3634 15.9716 27.3408C16.0264 27.3181 16.0761 27.2849 16.118 27.243C16.1599 27.2011 16.1931 27.1514 16.2158 27.0966C16.2384 27.0419 16.25 26.9832 16.25 26.9239V25.5761C16.25 25.5168 16.2384 25.4581 16.2158 25.4034C16.1931 25.3486 16.1599 25.2989 16.118 25.257C16.0761 25.2151 16.0264 25.1819 15.9716 25.1592C15.9169 25.1366 15.8582 25.125 15.7989 25.125H6.57605C6.51681 25.125 6.45813 25.1366 6.40339 25.1592C6.34864 25.1819 6.2989 25.2151 6.25701 25.257C6.21511 25.2989 6.18189 25.3486 6.15924 25.4034C6.13659 25.4581 6.12495 25.5168 6.125 25.5761V26.9239C6.12495 26.9832 6.13659 27.0419 6.15924 27.0966C6.18189 27.1514 6.21511 27.2011 6.25701 27.243C6.2989 27.2849 6.34864 27.3181 6.40339 27.3408C6.45813 27.3634 6.51681 27.375 6.57605 27.375ZM6.57605 18.375H15.7989C15.8582 18.375 15.9169 18.3634 15.9716 18.3408C16.0264 18.3181 16.0761 18.2849 16.118 18.243C16.1599 18.2011 16.1931 18.1514 16.2158 18.0966C16.2384 18.0419 16.25 17.9832 16.25 17.9239V16.5761C16.25 16.5168 16.2384 16.4581 16.2158 16.4034C16.1931 16.3486 16.1599 16.2989 16.118 16.257C16.0761 16.2151 16.0264 16.1819 15.9716 16.1592C15.9169 16.1366 15.8582 16.125 15.7989 16.125H6.57605C6.51681 16.125 6.45813 16.1366 6.40339 16.1592C6.34864 16.1819 6.2989 16.2151 6.25701 16.257C6.21511 16.2989 6.18189 16.3486 6.15924 16.4034C6.13659 16.4581 6.12495 16.5168 6.125 16.5761V17.9239C6.12495 17.9832 6.13659 18.0419 6.15924 18.0966C6.18189 18.1514 6.21511 18.2011 6.25701 18.243C6.2989 18.2849 6.34864 18.3181 6.40339 18.3408C6.45813 18.3634 6.51681 18.375 6.57605 18.375ZM21.3125 20.625H6.6875C6.53832 20.625 6.39524 20.6843 6.28975 20.7898C6.18426 20.8952 6.125 21.0383 6.125 21.1875V22.3125C6.125 22.4617 6.18426 22.6048 6.28975 22.7102C6.39524 22.8157 6.53832 22.875 6.6875 22.875H21.3125C21.4617 22.875 21.6048 22.8157 21.7102 22.7102C21.8157 22.6048 21.875 22.4617 21.875 22.3125V21.1875C21.875 21.0383 21.8157 20.8952 21.7102 20.7898C21.6048 20.6843 21.4617 20.625 21.3125 20.625ZM21.3125 29.625H6.6875C6.53832 29.625 6.39524 29.6843 6.28975 29.7898C6.18426 29.8952 6.125 30.0383 6.125 30.1875V31.3125C6.125 31.4617 6.18426 31.6048 6.28975 31.7102C6.39524 31.8157 6.53832 31.875 6.6875 31.875H21.3125C21.4617 31.875 21.6048 31.8157 21.7102 31.7102C21.8157 31.6048 21.875 31.4617 21.875 31.3125V30.1875C21.875 30.0383 21.8157 29.8952 21.7102 29.7898C21.6048 29.6843 21.4617 29.625 21.3125 29.625Z" fill="white"/>
</svg>
