<svg width="154" height="154" viewBox="0 0 154 154" fill="none" xmlns="http://www.w3.org/2000/svg">
<circle cx="77" cy="77" r="77" fill="#EEEEEE"/>
<g clip-path="url(#clip0_54_17)">
<rect x="28" y="3" width="119" height="119" rx="16" fill="#3198FE"/>
<rect x="103.028" y="38" width="110.959" height="60.8502" transform="rotate(45 103.028 38)" fill="#2B85DE"/>
</g>
<path d="M113.377 63.3266L95.2119 58.9958L108.778 46.1628C109.542 45.4396 109.561 44.2875 108.821 43.5875L103.458 38.5237C102.718 37.8249 101.498 37.8433 100.734 38.5665L87.168 51.3995L82.5693 34.2368C82.3101 33.2695 81.2633 32.7103 80.2316 32.9867L72.757 34.9895C71.7252 35.266 71.0983 36.2737 71.3575 37.241L75.9565 54.4048L57.7916 50.074C56.768 49.8299 55.7024 50.4239 55.4108 51.3992L53.2984 58.4647C53.0068 59.44 53.5997 60.4293 54.6233 60.6734L72.7882 65.0042L59.2223 77.8372C58.4579 78.5604 58.4391 79.7136 59.1793 80.4124L64.5417 85.4763C65.2819 86.1751 66.5014 86.1556 67.2662 85.4335L80.832 72.6005L85.4307 89.7632C85.6899 90.7305 86.7367 91.2897 87.7685 91.0132L95.2431 89.0104C96.2748 88.734 96.9018 87.7263 96.6426 86.759L92.0436 69.5952L110.208 73.926C111.232 74.1701 112.298 73.5772 112.589 72.6008L114.701 65.5342C114.993 64.5589 114.4 63.5707 113.377 63.3266V63.3266Z" fill="white"/>
<rect x="126" y="47" width="9" height="30" rx="4" fill="white"/>
<rect x="18" y="24" width="19" height="24" rx="4" fill="#3198FE"/>
<rect x="18" y="77" width="19" height="24" rx="4" fill="#3198FE"/>
<defs>
<clipPath id="clip0_54_17">
<rect x="28" y="3" width="119" height="119" rx="16" fill="white"/>
</clipPath>
</defs>
</svg>
